<svg width="32" height="32" viewBox="0 0 32 32" fill="none" xmlns="http://www.w3.org/2000/svg">
<path d="M24.2933 8.33333H16.6133V23.6667H24.2933V8.33333Z" stroke="black" stroke-miterlimit="10"/>
<path d="M16.6132 5.84V26.16C16.6383 26.5037 16.5923 26.8488 16.478 27.1739C16.3638 27.499 16.1837 27.797 15.9491 28.0494C15.7145 28.3017 15.4304 28.503 15.1145 28.6407C14.7986 28.7783 14.4578 28.8494 14.1132 28.8494C13.7686 28.8494 13.4278 28.7783 13.1119 28.6407C12.796 28.503 12.5119 28.3017 12.2773 28.0494C12.0427 27.797 11.8626 27.499 11.7483 27.1739C11.6341 26.8488 11.5881 26.5037 11.6132 26.16V26.08C10.8935 26.0817 10.185 25.9019 9.55319 25.5573C8.92139 25.2126 8.38671 24.7141 7.9986 24.1081C7.6105 23.502 7.38149 22.8078 7.33277 22.0898C7.28405 21.3717 7.41719 20.653 7.71987 20C6.88195 19.6691 6.16935 19.083 5.68296 18.3248C5.19656 17.5665 4.96102 16.6744 5.00969 15.7748C5.05835 14.8753 5.38876 14.0138 5.95412 13.3124C6.51948 12.611 7.29114 12.1052 8.15987 11.8667C7.68307 11.192 7.4269 10.3862 7.42653 9.56C7.42653 8.49913 7.84796 7.48172 8.5981 6.73157C9.34825 5.98143 10.3657 5.56 11.4265 5.56H11.6265C11.715 4.93975 12.0326 4.37513 12.5167 3.97738C13.0008 3.57963 13.6163 3.37758 14.2419 3.41104C14.8676 3.44449 15.458 3.71103 15.8969 4.15814C16.3358 4.60525 16.5913 5.20052 16.6132 5.82667V5.84Z" stroke="black" stroke-miterlimit="10"/>
<path d="M21.5599 11.0533H16.6133V20.9333H21.5599V11.0533Z" stroke="black" stroke-miterlimit="10"/>
<path d="M19.0933 5.84V8.33333" stroke="black" stroke-miterlimit="10"/>
<path d="M21.5601 5.84V8.33333" stroke="black" stroke-miterlimit="10"/>
<path d="M19.0933 23.6667V26.1733" stroke="black" stroke-miterlimit="10"/>
<path d="M21.5601 23.6667V26.1733" stroke="black" stroke-miterlimit="10"/>
<path d="M24.293 11.0533H26.9863" stroke="black" stroke-miterlimit="10"/>
<path d="M24.293 13.56H26.9863" stroke="black" stroke-miterlimit="10"/>
<path d="M24.293 16H26.9863" stroke="black" stroke-miterlimit="10"/>
<path d="M24.293 18.44H26.9863" stroke="black" stroke-miterlimit="10"/>
<path d="M24.293 20.88H26.9863" stroke="black" stroke-miterlimit="10"/>
<path d="M12.5601 11.0533L14.2534 12.5333H16.6134" stroke="black" stroke-miterlimit="10"/>
<path d="M12.5601 16H16.6134" stroke="black" stroke-miterlimit="10"/>
<path d="M12.5601 21.1067L14.2534 19.2H16.6134" stroke="black" stroke-miterlimit="10"/>
<path d="M11.6396 11.4133C12.3834 11.4133 12.9863 10.8104 12.9863 10.0667C12.9863 9.32292 12.3834 8.72 11.6396 8.72C10.8959 8.72 10.293 9.32292 10.293 10.0667C10.293 10.8104 10.8959 11.4133 11.6396 11.4133Z" stroke="#0087EB" stroke-width="0.75" stroke-miterlimit="10"/>
<path d="M11.2134 17.3467C11.9571 17.3467 12.56 16.7437 12.56 16C12.56 15.2563 11.9571 14.6533 11.2134 14.6533C10.4696 14.6533 9.8667 15.2563 9.8667 16C9.8667 16.7437 10.4696 17.3467 11.2134 17.3467Z" stroke="#0087EB" stroke-width="0.75" stroke-miterlimit="10"/>
<path d="M11.4932 23.28C12.2369 23.28 12.8398 22.6771 12.8398 21.9333C12.8398 21.1896 12.2369 20.5867 11.4932 20.5867C10.7494 20.5867 10.1465 21.1896 10.1465 21.9333C10.1465 22.6771 10.7494 23.28 11.4932 23.28Z" stroke="#0087EB" stroke-width="0.75" stroke-miterlimit="10"/>
</svg>
