<svg width="32" height="32" viewBox="0 0 32 32" fill="none" xmlns="http://www.w3.org/2000/svg">
<path d="M24.0869 12.7067V19.6133H21.2736V23.1867H11.8069V14.7467H8.43359V10.8H14.2869V15.96H21.7536V12.7067H24.0869Z" stroke="#0087EB" stroke-linecap="round" stroke-linejoin="round"/>
<path d="M14.2866 3.33333V16H21.7533V3.33333H14.2866Z" stroke="black" stroke-linecap="round" stroke-linejoin="round"/>
<path d="M21.2998 19.6133V28.6667H26.6331V19.6133H21.2998Z" stroke="black" stroke-linecap="round" stroke-linejoin="round"/>
<path d="M5.3667 14.7467V25.4133H11.8067V14.7467H5.3667Z" stroke="black" stroke-linecap="round" stroke-linejoin="round"/>
<path d="M6.91357 16.8H10.4469" stroke="black" stroke-width="0.5" stroke-linecap="round" stroke-linejoin="round"/>
<path d="M6.91357 18.3733H10.4469" stroke="black" stroke-width="0.5" stroke-linecap="round" stroke-linejoin="round"/>
<path d="M6.91357 19.9467H10.4469" stroke="black" stroke-width="0.5" stroke-linecap="round" stroke-linejoin="round"/>
<path d="M10.0601 24.28C10.4946 24.28 10.8468 23.9278 10.8468 23.4933C10.8468 23.0589 10.4946 22.7067 10.0601 22.7067C9.62564 22.7067 9.27344 23.0589 9.27344 23.4933C9.27344 23.9278 9.62564 24.28 10.0601 24.28Z" fill="black"/>
<path d="M22.7266 21.2133H25.0332" stroke="black" stroke-width="0.5" stroke-linecap="round" stroke-linejoin="round"/>
<path d="M22.7266 22.7467H25.0332" stroke="black" stroke-width="0.5" stroke-linecap="round" stroke-linejoin="round"/>
<path d="M22.7266 24.4133H25.0332" stroke="black" stroke-width="0.5" stroke-linecap="round" stroke-linejoin="round"/>
<path d="M24.8867 27.4267C25.1959 27.4267 25.4467 27.1759 25.4467 26.8667C25.4467 26.5574 25.1959 26.3067 24.8867 26.3067C24.5774 26.3067 24.3267 26.5574 24.3267 26.8667C24.3267 27.1759 24.5774 27.4267 24.8867 27.4267Z" fill="black"/>
<path d="M15.8467 5.42667H20.34" stroke="black" stroke-width="0.5" stroke-linecap="round" stroke-linejoin="round"/>
<path d="M15.8467 7.14667H20.34" stroke="black" stroke-width="0.5" stroke-linecap="round" stroke-linejoin="round"/>
<path d="M15.8467 8.88H20.34" stroke="black" stroke-width="0.5" stroke-linecap="round" stroke-linejoin="round"/>
<path d="M19.7801 14.72C20.2734 14.72 20.6734 14.32 20.6734 13.8267C20.6734 13.3333 20.2734 12.9333 19.7801 12.9333C19.2867 12.9333 18.8867 13.3333 18.8867 13.8267C18.8867 14.32 19.2867 14.72 19.7801 14.72Z" fill="black"/>
</svg>
