 <svg
                    xmlns="http://www.w3.org/2000/svg"
                    width="56"
                    height="41"
                    viewBox="0 0 56 41"
                    fill="none"
                  >
                    <path d="M7.43799 7.0484H44.6897V38.9181H7.43799V7.0484Z" fill="white" />
                    <path
                      d="M44.6901 39.2031H7.43837C7.36368 39.2031 7.29204 39.1734 7.23923 39.1206C7.18641 39.0678 7.15674 38.9962 7.15674 38.9215V7.04894C7.15674 6.97424 7.18641 6.90261 7.23923 6.84979C7.29204 6.79698 7.36368 6.7673 7.43837 6.7673H44.6901C44.7648 6.7673 44.8365 6.79698 44.8893 6.84979C44.9421 6.90261 44.9718 6.97424 44.9718 7.04894V38.9215C44.9718 38.9962 44.9421 39.0678 44.8893 39.1206C44.8365 39.1734 44.7648 39.2031 44.6901 39.2031ZM7.72001 38.6398H44.4085V7.33057H7.72001V38.6398Z"
                      fill="#093F68"
                    />
                    <path
                      d="M40.4317 13.122H36.0917C36.017 13.122 35.9454 13.0923 35.8925 13.0395C35.8397 12.9867 35.8101 12.9151 35.8101 12.8404C35.8101 12.7657 35.8397 12.6941 35.8925 12.6412C35.9454 12.5884 36.017 12.5587 36.0917 12.5587H40.4317C40.5064 12.5587 40.578 12.5884 40.6308 12.6412C40.6836 12.6941 40.7133 12.7657 40.7133 12.8404C40.7133 12.9151 40.6836 12.9867 40.6308 13.0395C40.578 13.0923 40.5064 13.122 40.4317 13.122Z"
                      fill="#DFEAEF"
                    />
                    <path
                      d="M24.742 30.2462C23.5722 30.2462 22.4287 29.8994 21.4561 29.2495C20.4835 28.5996 19.7255 27.6759 19.2778 26.5952C18.8302 25.5145 18.7131 24.3254 18.9413 23.1781C19.1695 22.0308 19.7328 20.977 20.5599 20.1499C21.387 19.3227 22.4409 18.7595 23.5881 18.5312C24.7354 18.303 25.9246 18.4202 27.0053 18.8678C28.086 19.3154 29.0097 20.0735 29.6595 21.0461C30.3094 22.0187 30.6563 23.1622 30.6563 24.3319C30.6563 25.9005 30.0332 27.4048 28.924 28.514C27.8149 29.6231 26.3105 30.2462 24.742 30.2462ZM24.742 19.0062C23.6836 19.0062 22.649 19.3201 21.7691 19.908C20.8891 20.496 20.2032 21.3317 19.7982 22.3095C19.3932 23.2873 19.2873 24.3632 19.4937 25.4012C19.7002 26.4392 20.2098 27.3927 20.9582 28.141C21.7065 28.8894 22.66 29.399 23.698 29.6055C24.736 29.812 25.8119 29.706 26.7897 29.301C27.7675 28.896 28.6032 28.2101 29.1912 27.3302C29.7792 26.4502 30.093 25.4156 30.093 24.3573C30.0923 22.9386 29.5282 21.5782 28.5247 20.5753C27.5213 19.5724 26.1607 19.009 24.742 19.009V19.0062Z"
                      fill="#DFEAEF"
                    />
                    <path
                      d="M33.2273 11.4045H26.7216C26.6469 11.4045 26.5752 11.3748 26.5224 11.322C26.4696 11.2692 26.4399 11.1975 26.4399 11.1229C26.4399 11.0482 26.4696 10.9765 26.5224 10.9237C26.5752 10.8709 26.6469 10.8412 26.7216 10.8412H33.2273C33.302 10.8412 33.3737 10.8709 33.4265 10.9237C33.4793 10.9765 33.509 11.0482 33.509 11.1229C33.509 11.1975 33.4793 11.2692 33.4265 11.322C33.3737 11.3748 33.302 11.4045 33.2273 11.4045Z"
                      fill="#DFEAEF"
                    />
                    <path
                      d="M33.2273 13.6585H26.7216C26.6469 13.6585 26.5752 13.6289 26.5224 13.5761C26.4696 13.5232 26.4399 13.4516 26.4399 13.3769C26.4399 13.3022 26.4696 13.2306 26.5224 13.1778C26.5752 13.1249 26.6469 13.0953 26.7216 13.0953H33.2273C33.302 13.0953 33.3737 13.1249 33.4265 13.1778C33.4793 13.2306 33.509 13.3022 33.509 13.3769C33.509 13.4516 33.4793 13.5232 33.4265 13.5761C33.3737 13.6289 33.302 13.6585 33.2273 13.6585Z"
                      fill="#DFEAEF"
                    />
                    <path
                      d="M30.9067 15.8749H26.7216C26.6469 15.8749 26.5752 15.8452 26.5224 15.7924C26.4696 15.7396 26.4399 15.6679 26.4399 15.5932C26.4399 15.5186 26.4696 15.4469 26.5224 15.3941C26.5752 15.3413 26.6469 15.3116 26.7216 15.3116H30.9067C30.9814 15.3116 31.053 15.3413 31.1058 15.3941C31.1586 15.4469 31.1883 15.5186 31.1883 15.5932C31.1883 15.6679 31.1586 15.7396 31.1058 15.7924C31.053 15.8452 30.9814 15.8749 30.9067 15.8749Z"
                      fill="#DFEAEF"
                    />
                    <path
                      d="M37.7168 36.8248H27.8202C27.7455 36.8248 27.6739 36.7952 27.6211 36.7423C27.5682 36.6895 27.5386 36.6179 27.5386 36.5432V32.2595C27.5386 32.1848 27.5682 32.1132 27.6211 32.0604C27.6739 32.0076 27.7455 31.9779 27.8202 31.9779H37.7168C37.7915 31.9779 37.8632 32.0076 37.916 32.0604C37.9688 32.1132 37.9985 32.1848 37.9985 32.2595V36.5432C37.9985 36.6179 37.9688 36.6895 37.916 36.7423C37.8632 36.7952 37.7915 36.8248 37.7168 36.8248ZM28.1018 36.2616H37.4352V32.5412H28.1018V36.2616Z"
                      fill="#DFEAEF"
                    />
                    <path
                      d="M16.2846 30.9173C16.223 30.9163 16.163 30.8967 16.1128 30.8609C16.0535 30.8157 16.0145 30.7488 16.0045 30.6749C15.9945 30.6009 16.0142 30.5261 16.0593 30.4667C16.9871 29.2409 18.0788 28.1483 19.3037 27.2194C19.364 27.1761 19.4389 27.1583 19.5122 27.1699C19.5855 27.1815 19.6513 27.2215 19.6952 27.2814C19.7171 27.3113 19.7329 27.3453 19.7416 27.3813C19.7503 27.4173 19.7519 27.4548 19.7461 27.4914C19.7404 27.528 19.7274 27.5632 19.7081 27.5948C19.6887 27.6264 19.6633 27.6539 19.6332 27.6757C18.4579 28.5755 17.4076 29.6277 16.5099 30.8046C16.4837 30.8396 16.4497 30.868 16.4106 30.8875C16.3715 30.9071 16.3283 30.9173 16.2846 30.9173Z"
                      fill="#DFEAEF"
                    />
                    <path
                      d="M19.3999 15.964H14.3305C14.2558 15.964 14.1841 15.9343 14.1313 15.8815C14.0785 15.8287 14.0488 15.7571 14.0488 15.6824C14.0488 15.6077 14.0785 15.536 14.1313 15.4832C14.1841 15.4304 14.2558 15.4007 14.3305 15.4007H19.3999C19.4746 15.4007 19.5462 15.4304 19.599 15.4832C19.6518 15.536 19.6815 15.6077 19.6815 15.6824C19.6815 15.7571 19.6518 15.8287 19.599 15.8815C19.5462 15.9343 19.4746 15.964 19.3999 15.964Z"
                      fill="#DFEAEF"
                    />
                    <path
                      d="M19.3999 18.5832H14.3305C14.2558 18.5832 14.1841 18.5535 14.1313 18.5007C14.0785 18.4479 14.0488 18.3762 14.0488 18.3015C14.0488 18.2268 14.0785 18.1552 14.1313 18.1024C14.1841 18.0496 14.2558 18.0199 14.3305 18.0199H19.3999C19.4746 18.0199 19.5462 18.0496 19.599 18.1024C19.6518 18.1552 19.6815 18.2268 19.6815 18.3015C19.6815 18.3762 19.6518 18.4479 19.599 18.5007C19.5462 18.5535 19.4746 18.5832 19.3999 18.5832Z"
                      fill="#DFEAEF"
                    />
                    <path
                      d="M18.2731 19.9922H16.6791C16.6044 19.9922 16.5328 19.9625 16.4799 19.9097C16.4271 19.8569 16.3975 19.7852 16.3975 19.7105C16.3975 19.6358 16.4271 19.5642 16.4799 19.5114C16.5328 19.4586 16.6044 19.4289 16.6791 19.4289H18.2731C18.3478 19.4289 18.4195 19.4586 18.4723 19.5114C18.5251 19.5642 18.5548 19.6358 18.5548 19.7105C18.5548 19.7852 18.5251 19.8569 18.4723 19.9097C18.4195 19.9625 18.3478 19.9922 18.2731 19.9922Z"
                      fill="#DFEAEF"
                    />
                    <path
                      d="M15.9213 21.2023H14.3329C14.2582 21.2023 14.1866 21.1727 14.1338 21.1198C14.0809 21.067 14.0513 20.9954 14.0513 20.9207C14.0513 20.846 14.0809 20.7744 14.1338 20.7216C14.1866 20.6687 14.2582 20.6391 14.3329 20.6391H15.9213C15.996 20.6391 16.0676 20.6687 16.1205 20.7216C16.1733 20.7744 16.203 20.846 16.203 20.9207C16.203 20.9954 16.1733 21.067 16.1205 21.1198C16.0676 21.1727 15.996 21.2023 15.9213 21.2023Z"
                      fill="#DFEAEF"
                    />
                    <path
                      d="M29.9748 20.1975C29.9076 20.198 29.8425 20.1745 29.7911 20.1312C29.7397 20.088 29.7055 20.0278 29.6946 19.9615C29.6838 19.8952 29.6969 19.8272 29.7318 19.7698C29.7666 19.7124 29.8208 19.6693 29.8846 19.6483C29.9719 19.6201 32.0645 18.8766 32.4898 16.2039C32.4956 16.1673 32.5086 16.1321 32.528 16.1005C32.5475 16.0689 32.573 16.0414 32.6031 16.0197C32.6332 15.998 32.6673 15.9824 32.7034 15.9739C32.7395 15.9654 32.777 15.9641 32.8136 15.9702C32.8871 15.9819 32.9529 16.0223 32.9967 16.0825C33.0405 16.1426 33.0587 16.2177 33.0474 16.2912C32.5658 19.3132 30.1663 20.1496 30.0621 20.1834C30.0338 20.1922 30.0044 20.1969 29.9748 20.1975Z"
                      fill="#DFEAEF"
                    />
                    <path
                      d="M13.4118 35.5825C13.3838 35.5868 13.3553 35.5868 13.3273 35.5825C13.256 35.5605 13.1963 35.511 13.1615 35.445C13.1266 35.379 13.1194 35.3018 13.1414 35.2305C13.3544 34.5604 13.6036 33.9022 13.8877 33.2591C14.3553 32.2142 14.9213 32.0396 15.3184 32.079C15.9042 32.1353 16.2478 32.6845 16.445 33.0929C16.6421 33.5013 16.8336 33.8139 17.1237 33.8843C17.2372 33.9002 17.3528 33.8895 17.4614 33.8528C17.5699 33.8161 17.6684 33.7546 17.7489 33.6731C17.9499 33.4632 18.1163 33.2226 18.2418 32.9605L19.7176 30.2709C19.7549 30.2052 19.8168 30.157 19.8897 30.1369C19.9626 30.1168 20.0405 30.1265 20.1062 30.1639C20.172 30.2012 20.2202 30.2632 20.2402 30.3361C20.2603 30.4089 20.2506 30.4868 20.2132 30.5525L18.7375 33.2393C18.5814 33.5518 18.376 33.8371 18.1292 34.0842C17.9826 34.2319 17.8016 34.3406 17.6024 34.4006C17.4032 34.4606 17.1922 34.4699 16.9885 34.4278C16.4253 34.2898 16.1436 33.7237 15.9437 33.3464C15.7944 33.0647 15.5635 32.6648 15.2509 32.6366C14.8509 32.5916 14.5411 33.152 14.3919 33.4815C14.1146 34.1057 13.8729 34.7451 13.6681 35.3967C13.6489 35.4498 13.6142 35.4959 13.5685 35.529C13.5228 35.5622 13.4682 35.5808 13.4118 35.5825Z"
                      fill="#DFEAEF"
                    />
                    <path
                      d="M52.9307 38.9211C52.8884 38.7268 49.8327 17.9168 47.8613 14.5175C46.2982 11.8363 40.105 11.9631 39.0574 12.2644C38.0097 12.5658 31.0618 16.0721 30.7125 16.3678C29.8845 17.0747 29.7156 18.8772 31.856 18.8068C32.6346 19.3458 33.3804 19.9307 34.0893 20.5586C35.4018 21.702 35.5369 22.0822 35.5369 22.0822C35.5369 22.0822 38.7842 25.1802 40.1811 26.0589C40.1811 26.0589 39.3165 28.1092 40.2571 29.0414C40.9257 29.6616 41.6856 30.1755 42.5102 30.565L43.341 38.9239L52.9307 38.9211Z"
                      fill="#FFC9B0"
                    />
                    <path
                      d="M52.9303 39.2031H43.3351C43.2646 39.2034 43.1965 39.1772 43.1444 39.1298C43.0922 39.0823 43.0598 39.0171 43.0534 38.9468L42.2367 30.7485C41.4368 30.3574 40.7002 29.8485 40.0512 29.2389C39.1725 28.3687 39.6231 26.7549 39.8315 26.1663C38.3501 25.1468 35.4634 22.4065 35.3254 22.2854C35.2934 22.2544 35.2685 22.2169 35.2522 22.1755C35.2522 22.1755 35.0719 21.801 33.8862 20.7674C33.2066 20.1649 32.4939 19.6007 31.7515 19.0775C30.4954 19.1029 30.0757 18.4861 29.9349 18.12C29.8251 17.7724 29.82 17.4001 29.9202 17.0496C30.0203 16.6991 30.2213 16.3857 30.4982 16.1486C30.9319 15.7796 37.908 12.2817 38.9472 11.986C40.0737 11.6706 46.419 11.541 48.0722 14.3714C49.6775 17.1286 51.9193 30.6274 53.1134 38.4314C53.15 38.6849 53.1754 38.837 53.1782 38.8623C53.1863 38.9033 53.1851 38.9454 53.1749 38.9859C53.1647 39.0263 53.1456 39.0639 53.119 39.0961C53.0962 39.1255 53.0678 39.1501 53.0354 39.1685C53.003 39.1869 52.9673 39.1986 52.9303 39.2031ZM43.5914 38.6399H52.6037L52.5868 38.5188C50.5674 25.3101 48.7537 16.6132 47.6159 14.6587C46.8358 13.3209 44.7996 12.7746 43.2224 12.5521C41.3777 12.2902 39.6062 12.3972 39.1303 12.5324C38.0629 12.8337 31.2445 16.2978 30.8897 16.5823C30.7001 16.7443 30.5606 16.9569 30.4873 17.1953C30.414 17.4336 30.4099 17.6879 30.4757 17.9285C30.6784 18.4495 31.3206 18.5396 31.8444 18.5255C31.9024 18.5216 31.96 18.5375 32.0077 18.5706C32.7949 19.1146 33.5474 19.7072 34.2608 20.3449C35.331 21.2771 35.669 21.7277 35.7535 21.9108C36.1168 22.2544 39.0401 25.0088 40.3188 25.8171C40.3745 25.8529 40.4159 25.9074 40.4354 25.9707C40.455 26.0341 40.4516 26.1024 40.4258 26.1635C40.2061 26.6873 39.7808 28.1856 40.4399 28.839C41.0864 29.4337 41.8183 29.9283 42.6113 30.3063C42.6561 30.3267 42.6947 30.3585 42.7234 30.3986C42.752 30.4386 42.7697 30.4854 42.7746 30.5344L43.5914 38.6399Z"
                      fill="#093F68"
                    />
                    <path
                      d="M33.3374 25.7937L29.1636 21.4537L37.9083 13.1849L42.0793 17.5249L33.3374 25.7937Z"
                      fill="#FFBC0E"
                    />
                    <path
                      d="M33.3368 26.0749C33.2991 26.0751 33.2617 26.0677 33.2268 26.0532C33.192 26.0387 33.1604 26.0173 33.134 25.9904L28.9602 21.6504C28.91 21.5947 28.882 21.5226 28.8813 21.4476C28.8826 21.4104 28.8912 21.3739 28.9067 21.34C28.9222 21.3062 28.9442 21.2757 28.9715 21.2505L37.7021 12.9789C37.7549 12.9264 37.8263 12.897 37.9007 12.897C37.9751 12.897 38.0465 12.9264 38.0992 12.9789L42.2815 17.3189C42.3332 17.3725 42.3615 17.4444 42.3604 17.5188C42.3598 17.5563 42.3518 17.5933 42.3369 17.6276C42.3219 17.6619 42.3002 17.6929 42.2731 17.7188L33.5283 25.9875C33.4782 26.0403 33.4095 26.0716 33.3368 26.0749ZM29.5629 21.4645L33.3453 25.4074L41.6788 17.5216L37.8965 13.5788L29.5629 21.4645Z"
                      fill="#093F68"
                    />
                    <path
                      d="M33.3343 25.7944L28.9521 27.6842L25.457 29.1937L27.1018 25.7606L29.1633 21.4572L33.3343 25.7944Z"
                      fill="white"
                    />
                    <path
                      d="M25.4569 29.4728C25.4192 29.4731 25.3818 29.4657 25.347 29.4512C25.3121 29.4367 25.2806 29.4153 25.2542 29.3883C25.2142 29.3469 25.1879 29.2941 25.1788 29.2372C25.1697 29.1803 25.1783 29.122 25.2035 29.0701L28.9013 21.3336C28.921 21.2927 28.9504 21.2572 28.9867 21.2301C29.0231 21.203 29.0655 21.1851 29.1103 21.1779C29.1551 21.1707 29.201 21.1745 29.2441 21.1888C29.2871 21.2032 29.3261 21.2277 29.3576 21.2604L33.5286 25.6004C33.5601 25.6331 33.5832 25.6729 33.596 25.7165C33.6087 25.7601 33.6108 25.8061 33.6019 25.8506C33.5931 25.8952 33.5736 25.9369 33.5451 25.9723C33.5167 26.0076 33.4801 26.0356 33.4385 26.0538L25.5527 29.4503C25.5223 29.4634 25.4899 29.471 25.4569 29.4728ZM29.2421 21.9448L26.0343 28.6364L32.8442 25.6989L29.2421 21.9448Z"
                      fill="#093F68"
                    />
                    <path
                      d="M53.2991 12.0866C54.1136 11.3045 54.7227 10.3337 55.0724 9.25997C55.4221 8.1863 55.5015 7.04295 55.3038 5.93121C55.1061 4.81947 54.6372 3.77366 53.9387 2.88642C53.2402 1.99918 52.3337 1.2979 51.2995 0.844691C50.2652 0.391486 49.1351 0.20035 48.0094 0.288215C46.8836 0.376079 45.7969 0.740232 44.8455 1.34841C43.8941 1.9566 43.1073 2.79004 42.555 3.7749C42.0026 4.75977 41.7017 5.86566 41.6788 6.99462C41.639 8.24931 41.2487 9.46781 40.5523 10.5122L40.4199 10.715L44.6444 15.1113L44.8951 14.962C46.0061 14.3164 47.2715 13.9845 48.5563 14.0017C50.3255 14.0008 52.0254 13.3144 53.2991 12.0866Z"
                      fill="#367CFF"
                    />
                    <path
                      d="M44.6478 15.3932C44.6094 15.3935 44.5713 15.3859 44.536 15.3708C44.5006 15.3558 44.4687 15.3337 44.4422 15.3059L40.2177 10.9124C40.1738 10.8663 40.1469 10.8067 40.1412 10.7432C40.1356 10.6798 40.1516 10.6164 40.1867 10.5632L40.3163 10.3604C40.9857 9.35719 41.3603 8.18633 41.3977 6.98083C41.4247 5.80802 41.74 4.65989 42.3159 3.63782C42.8917 2.61576 43.7103 1.7512 44.6995 1.12049C45.6887 0.489785 46.8179 0.112334 47.9875 0.0214677C49.1571 -0.0693988 50.3311 0.129114 51.4057 0.59948C52.4804 1.06985 53.4228 1.79759 54.1496 2.71846C54.8764 3.63932 55.3652 4.72498 55.573 5.87955C55.7808 7.03412 55.7011 8.22209 55.3409 9.33857C54.9808 10.455 54.3513 11.4657 53.508 12.2812C52.1807 13.5607 50.4089 14.2755 48.5653 14.2752C47.333 14.2598 46.1195 14.578 45.0534 15.1961L44.8027 15.3454C44.7565 15.3753 44.7029 15.3919 44.6478 15.3932ZM40.7782 10.6815L44.6957 14.7539L44.7548 14.7201C45.9081 14.0508 47.2207 13.7054 48.5541 13.7203C50.2517 13.7208 51.8833 13.0625 53.1053 11.8841C54.3814 10.7085 55.142 9.07667 55.2216 7.34339C55.3013 5.6101 54.6935 3.91544 53.5305 2.62777C52.3676 1.3401 50.7433 0.563509 49.0109 0.466813C47.2785 0.370117 45.5779 0.961129 44.2789 2.11138C43.5703 2.71553 42.9974 3.4627 42.598 4.30386C42.1985 5.14501 41.9814 6.06113 41.961 6.9921C41.9188 8.29776 41.5131 9.56575 40.7894 10.6533L40.7782 10.6815Z"
                      fill="#093F68"
                    />
                    <path
                      d="M44.5117 14.9701L40.5554 10.8546C40.3128 10.6023 39.9117 10.5944 39.6594 10.837L39.5579 10.9345C39.3056 11.1771 39.2977 11.5782 39.5402 11.8305L43.4965 15.946C43.739 16.1983 44.1402 16.2062 44.3925 15.9637L44.494 15.8661C44.7463 15.6236 44.7542 15.2224 44.5117 14.9701Z"
                      fill="white"
                    />
                    <path
                      d="M43.9549 16.4242H43.9352C43.8148 16.4222 43.696 16.3963 43.5858 16.3479C43.4755 16.2996 43.376 16.2297 43.2931 16.1425L39.3361 12.0278C39.1681 11.8525 39.0765 11.6177 39.0812 11.3749C39.086 11.1321 39.1867 10.901 39.3614 10.7323L39.4656 10.6338C39.6406 10.466 39.8749 10.3744 40.1172 10.3791C40.3596 10.3839 40.5901 10.4846 40.7583 10.6591L44.7012 14.7766C44.869 14.9515 44.9606 15.1858 44.9558 15.4282C44.9511 15.6705 44.8504 15.9011 44.6759 16.0693L44.5745 16.1707C44.4074 16.3304 44.186 16.4209 43.9549 16.4242ZM40.0993 10.9436C40.0084 10.9429 39.9207 10.9772 39.8543 11.0393L39.7529 11.1379C39.6874 11.2043 39.6506 11.2938 39.6506 11.3871C39.6506 11.4804 39.6874 11.57 39.7529 11.6364L43.7099 15.7539C43.7421 15.7871 43.7806 15.8137 43.8231 15.8321C43.8656 15.8504 43.9114 15.8602 43.9577 15.8609C44.051 15.8622 44.141 15.8268 44.2084 15.7623L44.3097 15.6637C44.3425 15.631 44.3685 15.5922 44.3863 15.5494C44.404 15.5067 44.4132 15.4608 44.4132 15.4145C44.4132 15.3682 44.404 15.3223 44.3863 15.2796C44.3685 15.2368 44.3425 15.198 44.3097 15.1653L40.3669 11.0506C40.3321 11.0152 40.2904 10.9874 40.2444 10.9689C40.1983 10.9505 40.1489 10.9419 40.0993 10.9436Z"
                      fill="#093F68"
                    />
                    <path
                      d="M43.4985 15.9489L39.5422 11.8334C39.2996 11.5811 38.8985 11.5731 38.6462 11.8157L38.5447 11.9133C38.2924 12.1558 38.2845 12.557 38.527 12.8092L42.4833 16.9247C42.7258 17.177 43.127 17.185 43.3793 16.9424L43.4808 16.8448C43.7331 16.6023 43.741 16.2012 43.4985 15.9489Z"
                      fill="white"
                    />
                    <path
                      d="M42.9381 17.4007C42.8144 17.4012 42.692 17.3765 42.5782 17.328C42.4644 17.2796 42.3617 17.2085 42.2763 17.119L38.3193 13.0044C38.152 12.8286 38.0609 12.594 38.0656 12.3514C38.0704 12.1088 38.1706 11.8779 38.3447 11.7088L38.4489 11.6103C38.5337 11.5251 38.6354 11.4586 38.7474 11.4149C38.8594 11.3713 38.9793 11.3515 39.0994 11.3568C39.2198 11.3586 39.3387 11.3845 39.4489 11.4328C39.5592 11.4812 39.6587 11.5511 39.7416 11.6384L43.6985 15.7559C43.782 15.8424 43.8475 15.9444 43.8914 16.0562C43.9353 16.168 43.9567 16.2874 43.9543 16.4075C43.952 16.5276 43.9259 16.6461 43.8777 16.7561C43.8294 16.8661 43.7599 16.9655 43.6732 17.0486L43.5718 17.1472C43.4016 17.311 43.1743 17.4019 42.9381 17.4007ZM42.6818 16.7304C42.7476 16.7966 42.8364 16.8349 42.9297 16.8374C42.9759 16.8387 43.022 16.8306 43.065 16.8137C43.1081 16.7968 43.1473 16.7713 43.1803 16.7388L43.2845 16.6403C43.3501 16.5738 43.3868 16.4843 43.3868 16.391C43.3868 16.2977 43.3501 16.2082 43.2845 16.1418L39.3276 12.0271C39.2951 11.994 39.2563 11.9676 39.2135 11.9497C39.1707 11.9317 39.1247 11.9225 39.0783 11.9225C39.0319 11.9225 38.986 11.9317 38.9432 11.9497C38.9004 11.9676 38.8616 11.994 38.8291 12.0271L38.7277 12.1257C38.6628 12.1924 38.6265 12.2818 38.6265 12.3749C38.6265 12.468 38.6628 12.5574 38.7277 12.6242L42.6818 16.7304Z"
                      fill="#093F68"
                    />
                    <path
                      d="M42.4804 16.9242L38.5241 12.8087C38.2816 12.5564 37.8804 12.5485 37.6281 12.791L37.5266 12.8886C37.2743 13.1311 37.2664 13.5323 37.5089 13.7846L41.4652 17.9001C41.7078 18.1524 42.1089 18.1603 42.3612 17.9178L42.4627 17.8202C42.715 17.5776 42.7229 17.1765 42.4804 16.9242Z"
                      fill="white"
                    />
                    <path
                      d="M41.9218 18.3782C41.7982 18.3782 41.6758 18.3533 41.5621 18.3049C41.4484 18.2565 41.3456 18.1857 41.2599 18.0966L37.317 13.9819C37.1491 13.8065 37.0574 13.5717 37.0622 13.3289C37.0669 13.0861 37.1677 12.8551 37.3424 12.6864L37.4466 12.5878C37.6215 12.42 37.8558 12.3285 38.0982 12.3332C38.3405 12.338 38.5711 12.4387 38.7393 12.6132L42.6963 16.7307C42.78 16.8169 42.8459 16.9189 42.89 17.0308C42.9341 17.1426 42.9556 17.2621 42.9532 17.3823C42.9509 17.5025 42.9247 17.6211 42.8762 17.7311C42.8278 17.8411 42.758 17.9405 42.6709 18.0234L42.5695 18.1219C42.4838 18.2052 42.3824 18.2708 42.2712 18.3148C42.1601 18.3587 42.0413 18.3803 41.9218 18.3782ZM41.6683 17.7051C41.7008 17.7378 41.7394 17.7638 41.7819 17.7815C41.8244 17.7992 41.8701 17.8083 41.9161 17.8083C41.9622 17.8083 42.0078 17.7992 42.0504 17.7815C42.0929 17.7638 42.1315 17.7378 42.164 17.7051L42.2682 17.6066C42.3337 17.5401 42.3704 17.4506 42.3704 17.3573C42.3704 17.264 42.3337 17.1745 42.2682 17.1081L38.3112 12.9934C38.2448 12.9279 38.1553 12.8911 38.062 12.8911C37.9687 12.8911 37.8791 12.9279 37.8127 12.9934L37.7113 13.092C37.6786 13.1247 37.6525 13.1635 37.6348 13.2063C37.617 13.249 37.6079 13.2949 37.6079 13.3412C37.6079 13.3875 37.617 13.4334 37.6348 13.4761C37.6525 13.5189 37.6786 13.5577 37.7113 13.5904L41.6683 17.7051Z"
                      fill="#093F68"
                    />
                    <path
                      d="M43.2005 13.6338C43.1442 13.6341 43.0891 13.6176 43.0423 13.5863C42.9955 13.555 42.9592 13.5104 42.938 13.4583C42.9168 13.4062 42.9116 13.3489 42.9233 13.2938C42.935 13.2387 42.9629 13.1884 43.0034 13.1494C43.9159 12.2538 44.8537 11.3694 45.8197 10.471C45.5321 10.2386 45.2611 9.98638 45.0086 9.71624C44.2224 10.721 43.3848 11.6846 42.4993 12.603C42.4464 12.6505 42.3775 12.6763 42.3065 12.6752C42.2354 12.6741 42.1674 12.6461 42.1161 12.5969C42.0648 12.5477 42.0339 12.481 42.0298 12.41C42.0256 12.3391 42.0485 12.2692 42.0937 12.2143C42.9904 11.2821 43.8365 10.3025 44.6284 9.2797L44.5974 9.24309C43.5469 7.88561 43.3836 6.61826 44.1271 5.36217C44.3571 4.91472 44.7072 4.54021 45.1382 4.2807C45.2996 4.19618 45.4766 4.14581 45.6583 4.13273C45.84 4.11965 46.0225 4.14413 46.1943 4.20466C46.389 4.27371 46.5676 4.38141 46.7196 4.52128C46.8716 4.66115 46.9937 4.83031 47.0786 5.01858C47.4222 5.77617 47.0477 6.60418 46.735 7.159C46.319 7.88816 45.8581 8.59078 45.355 9.2628C45.6244 9.55921 45.9173 9.8333 46.2309 10.0824C47.4419 8.95582 48.8135 8.2799 50.0837 8.19823C50.3765 8.16851 50.6722 8.21006 50.9455 8.31933C51.2054 8.44225 51.4257 8.63574 51.581 8.87774C51.7364 9.11974 51.8206 9.40052 51.8242 9.68807C51.8228 9.96012 51.7664 10.2291 51.6585 10.4788C51.5506 10.7285 51.3933 10.9539 51.1961 11.1413C50.9264 11.3964 50.6089 11.5957 50.2618 11.7276C49.9148 11.8596 49.5451 11.9216 49.174 11.9102C48.1826 11.8933 47.1519 11.4398 46.2675 10.8174C45.2846 11.7327 44.3242 12.6368 43.3949 13.5521C43.3431 13.6034 43.2734 13.6327 43.2005 13.6338ZM46.6928 10.4203C47.4208 10.9577 48.2857 11.2789 49.1881 11.3469C49.4837 11.3577 49.7786 11.3098 50.0556 11.2059C50.3326 11.1019 50.5863 10.9441 50.8018 10.7414C50.9431 10.6098 51.0566 10.4513 51.1359 10.2753C51.2152 10.0993 51.2587 9.90922 51.2637 9.71624C51.2625 9.53653 51.2116 9.36066 51.1167 9.20807C51.0217 9.05548 50.8865 8.93212 50.7258 8.85162C50.5338 8.77876 50.3272 8.75269 50.1231 8.77558C49.0078 8.83191 47.794 9.4346 46.6928 10.4203ZM45.7521 4.69188C45.6282 4.69188 45.5062 4.72286 45.3973 4.78201C45.0619 4.99499 44.7904 5.29472 44.6115 5.64944C43.9976 6.68585 44.1102 7.66312 44.9805 8.81501C45.4404 8.19702 45.8627 7.55185 46.245 6.883C46.5266 6.39577 46.8083 5.75646 46.5661 5.25234C46.5125 5.13239 46.4349 5.02474 46.338 4.93607C46.2411 4.84741 46.127 4.77963 46.0028 4.73694C45.9224 4.70799 45.8376 4.69276 45.7521 4.69188Z"
                      fill="#093F68"
                    />
                    <path
                      d="M28.9521 27.686L25.457 29.1928L27.1018 25.7596L28.9521 27.686Z"
                      fill="#093F68"
                    />
                    <path
                      d="M25.4565 29.4755C25.4186 29.4753 25.3811 29.4675 25.3462 29.4525C25.3114 29.4375 25.2799 29.4156 25.2538 29.3882C25.2143 29.3469 25.1884 29.2947 25.1794 29.2384C25.1703 29.182 25.1786 29.1243 25.2031 29.0728L26.8478 25.6396C26.8672 25.5985 26.8963 25.5626 26.9326 25.5351C26.9689 25.5077 27.0113 25.4894 27.0562 25.4819C27.1013 25.4749 27.1474 25.4789 27.1905 25.4936C27.2337 25.5083 27.2727 25.5333 27.304 25.5664L29.1544 27.49C29.1859 27.5227 29.209 27.5625 29.2218 27.6061C29.2345 27.6497 29.2366 27.6957 29.2277 27.7402C29.2189 27.7848 29.1994 27.8265 29.1709 27.8619C29.1425 27.8973 29.1059 27.9252 29.0643 27.9434L25.5692 29.453C25.5334 29.4674 25.4952 29.4751 25.4565 29.4755ZM27.1801 26.248L26.0367 28.6362L28.4672 27.5885L27.1801 26.248Z"
                      fill="#093F68"
                    />
                    <path
                      d="M30.456 23.0818C30.3996 23.0816 30.3445 23.0644 30.2979 23.0326C30.2514 23.0007 30.2155 22.9556 30.1948 22.9031C30.1742 22.8506 30.1698 22.7932 30.1822 22.7381C30.1946 22.6831 30.2233 22.6331 30.2644 22.5945L38.4994 14.813C38.5522 14.7605 38.6236 14.7311 38.698 14.7311C38.7724 14.7311 38.8438 14.7605 38.8965 14.813C38.9229 14.8392 38.9439 14.8703 38.9582 14.9046C38.9725 14.9389 38.9798 14.9758 38.9798 15.0129C38.9798 15.0501 38.9725 15.0869 38.9582 15.1212C38.9439 15.1556 38.9229 15.1867 38.8965 15.2129L30.6616 22.9944C30.635 23.0223 30.6031 23.0443 30.5678 23.0594C30.5324 23.0744 30.4944 23.082 30.456 23.0818Z"
                      fill="#093F68"
                    />
                    <path
                      d="M32.042 24.7314C32.0039 24.7309 31.9662 24.7227 31.9314 24.7072C31.8965 24.6917 31.8652 24.6693 31.8392 24.6413C31.7868 24.5885 31.7573 24.5172 31.7573 24.4428C31.7573 24.3684 31.7868 24.297 31.8392 24.2442L40.0855 16.4739C40.1382 16.4215 40.2096 16.392 40.284 16.392C40.3584 16.392 40.4298 16.4215 40.4826 16.4739C40.509 16.5001 40.5299 16.5313 40.5442 16.5656C40.5585 16.5999 40.5659 16.6367 40.5659 16.6739C40.5659 16.7111 40.5585 16.7479 40.5442 16.7822C40.5299 16.8165 40.509 16.8477 40.4826 16.8738L32.2363 24.6413C32.1859 24.6958 32.1161 24.7282 32.042 24.7314Z"
                      fill="#093F68"
                    />
                    <path
                      d="M41.2027 20.3441C41.2027 20.3441 32.8663 17.339 32.0608 18.0149C31.2554 18.6909 31.0864 19.4963 32.5255 21.1129C33.9647 22.7295 37.6907 24.3602 37.6907 24.3602C37.6907 24.3602 36.2008 29.0043 42.5038 30.5561"
                      fill="#FFC9B0"
                    />
                    <path
                      d="M42.5042 30.8377H42.4366C40.1835 30.2744 38.6402 29.2803 37.8431 27.8552C37.284 26.8399 37.109 25.6572 37.3503 24.5235C36.5195 24.1405 33.582 22.721 32.3062 21.2931C31.4782 20.3694 31.1149 19.6456 31.16 19.0119C31.1863 18.7715 31.2632 18.5393 31.3855 18.3306C31.5078 18.1219 31.6728 17.9414 31.8697 17.8009C32.7146 17.0968 38.7359 19.1583 41.2875 20.0793C41.3577 20.1047 41.415 20.157 41.4466 20.2246C41.4783 20.2922 41.4819 20.3696 41.4565 20.4398C41.4311 20.5093 41.3793 20.566 41.3123 20.5976C41.2454 20.6293 41.1687 20.6333 41.0988 20.6088C37.2376 19.2175 32.7512 17.9135 32.2274 18.2346C32.0911 18.3284 31.9758 18.4494 31.8885 18.59C31.8013 18.7305 31.744 18.8876 31.7204 19.0513C31.6894 19.516 32.0021 20.1272 32.7259 20.9186C34.1087 22.4619 37.7587 24.0926 37.7953 24.1067C37.8585 24.1352 37.9089 24.186 37.937 24.2494C37.965 24.3128 37.9687 24.3843 37.9473 24.4503C37.6771 25.5059 37.8128 26.6244 38.3276 27.5848C39.0485 28.8635 40.4708 29.7731 42.5521 30.2885C42.6268 30.2975 42.6948 30.3358 42.7413 30.3949C42.7878 30.4541 42.8089 30.5293 42.7999 30.604C42.7909 30.6787 42.7527 30.7467 42.6935 30.7932C42.6344 30.8397 42.5592 30.8608 42.4845 30.8518L42.5042 30.8377Z"
                      fill="#093F68"
                    />
                    <path
                      d="M22.4604 12.3916H13.206C13.1313 12.3916 13.0596 12.362 13.0068 12.3091C12.954 12.2563 12.9243 12.1847 12.9243 12.11V9.71611C12.9243 9.64142 12.954 9.56978 13.0068 9.51697C13.0596 9.46415 13.1313 9.43448 13.206 9.43448H22.4604C22.5351 9.43448 22.6068 9.46415 22.6596 9.51697C22.7124 9.56978 22.7421 9.64142 22.7421 9.71611V12.1072C22.7425 12.1444 22.7354 12.1813 22.7215 12.2158C22.7075 12.2503 22.6868 12.2817 22.6606 12.3082C22.6344 12.3346 22.6032 12.3556 22.5689 12.3699C22.5345 12.3843 22.4977 12.3916 22.4604 12.3916ZM13.4876 11.8284H22.1788V9.99775H13.4876V11.8284Z"
                      fill="#DFEAEF"
                    />
                    <path
                      d="M19.4609 31.2241C19.4526 31.0201 19.3776 30.8245 19.2473 30.6673C19.1171 30.5101 18.9388 30.4 18.7399 30.3539C18.3907 30.2778 18.0386 30.2215 17.6866 30.168C17.6375 30.1648 17.5906 30.1463 17.5527 30.1149C17.5148 30.0835 17.4877 30.041 17.4754 29.9934C17.3712 29.7118 17.2557 29.4301 17.1318 29.1626C17.1125 29.1302 17.1041 29.0926 17.1076 29.0551C17.1112 29.0177 17.1265 28.9823 17.1515 28.9542C17.3627 28.6725 17.5796 28.3712 17.7767 28.067C17.8892 27.8965 17.9421 27.6936 17.9274 27.4899C17.9126 27.2861 17.8309 27.093 17.695 26.9405C17.3712 26.5856 17.0276 26.2533 16.6896 25.9125C16.5224 25.7244 16.2898 25.6071 16.0391 25.5846C15.7884 25.5621 15.5386 25.6361 15.3406 25.7914C15.0758 25.9745 14.8139 26.1604 14.5548 26.3547C14.5263 26.3799 14.4907 26.3957 14.4528 26.3997C14.415 26.4038 14.3768 26.3959 14.3436 26.3772C14.0451 26.2448 13.7437 26.1209 13.4396 26.0026C13.4029 25.9928 13.3701 25.9718 13.3459 25.9425C13.3217 25.9133 13.3072 25.8772 13.3044 25.8393C13.2537 25.5182 13.2002 25.1972 13.1438 24.8733C13.1139 24.6448 13.0037 24.4343 12.8329 24.2796C12.6622 24.1248 12.442 24.0358 12.2116 24.0284C11.716 24.0284 11.2203 24.0284 10.7218 24.0284C10.5105 24.0323 10.3067 24.1072 10.1432 24.2411C9.97973 24.3749 9.86607 24.5599 9.82055 24.7663C9.7417 25.1268 9.68537 25.4929 9.62622 25.8562C9.62343 25.8941 9.60891 25.9302 9.58469 25.9594C9.56047 25.9887 9.52774 26.0097 9.49104 26.0195C9.20941 26.135 8.91087 26.2589 8.62642 26.3857C8.59581 26.405 8.5597 26.4139 8.5236 26.4108C8.48751 26.4078 8.4534 26.393 8.42646 26.3688C8.14483 26.1575 7.8632 25.9435 7.55622 25.7492C7.38528 25.6321 7.18003 25.5757 6.97327 25.589C6.76651 25.6022 6.57016 25.6844 6.4156 25.8224C6.03821 26.1688 5.66926 26.5293 5.32285 26.9039C5.15791 27.0706 5.06013 27.2923 5.04818 27.5266C5.03624 27.7609 5.11095 27.9913 5.25808 28.174C5.45241 28.4557 5.65237 28.7373 5.84388 29.0189C5.85693 29.0413 5.86517 29.0661 5.86808 29.0918C5.87099 29.1175 5.8685 29.1435 5.86078 29.1682C5.73967 29.4808 5.61576 29.7906 5.48339 30.0976C5.4723 30.121 5.45622 30.1417 5.43627 30.1583C5.41632 30.1748 5.39299 30.1868 5.36792 30.1934C5.04685 30.2525 4.72298 30.306 4.40191 30.3567C4.17438 30.3826 3.96317 30.4876 3.80515 30.6533C3.64712 30.8191 3.55232 31.0351 3.5373 31.2636C3.5204 31.7818 3.5373 32.3 3.5373 32.8182C3.54661 33.0201 3.62149 33.2134 3.75057 33.3689C3.87966 33.5245 4.05592 33.6337 4.25265 33.68C4.62159 33.7645 4.99616 33.8208 5.37918 33.8828C5.41511 33.886 5.44919 33.9002 5.47686 33.9234C5.50454 33.9465 5.52449 33.9775 5.53408 34.0123C5.64955 34.2939 5.77629 34.5981 5.90584 34.8882C5.92275 34.9171 5.93021 34.9505 5.92718 34.9838C5.92415 35.0172 5.91078 35.0487 5.88894 35.0741C5.69179 35.3416 5.49747 35.6092 5.30877 35.8824C5.16154 36.0751 5.09149 36.3159 5.11233 36.5575C5.13316 36.7992 5.24338 37.0244 5.42143 37.1891C5.73123 37.5065 6.04572 37.82 6.3649 38.1298C6.53283 38.3142 6.76492 38.4275 7.01364 38.4463C7.26235 38.4652 7.50885 38.3882 7.70266 38.2312C7.9843 38.0425 8.2434 37.851 8.51096 37.6679C8.53506 37.6479 8.56477 37.6357 8.59603 37.6332C8.62729 37.6307 8.65856 37.6379 8.68557 37.6538C8.9672 37.7721 9.24884 37.8904 9.53047 37.9946C9.57299 38.007 9.61055 38.0324 9.63784 38.0673C9.66513 38.1021 9.68077 38.1447 9.68255 38.1889C9.73324 38.5072 9.78394 38.8254 9.84027 39.1437C9.86724 39.366 9.97086 39.572 10.1333 39.7262C10.2957 39.8804 10.5068 39.9732 10.7302 39.9886C11.2513 40.0055 11.7751 40.0027 12.2961 39.9886C12.5005 39.9783 12.6959 39.9014 12.8525 39.7697C13.0091 39.638 13.1183 39.4587 13.1635 39.2592C13.2424 38.9071 13.2959 38.5494 13.3522 38.1946C13.3555 38.1522 13.3715 38.1117 13.3981 38.0786C13.4248 38.0454 13.4608 38.0211 13.5015 38.0087C13.7831 37.896 14.0817 37.7749 14.3689 37.651C14.3984 37.6343 14.4322 37.6269 14.4659 37.6299C14.4997 37.633 14.5317 37.6462 14.5576 37.6679C14.8224 37.8651 15.0956 38.0538 15.3631 38.2312C15.5507 38.37 15.7806 38.4397 16.0137 38.4283C16.2292 38.4285 16.4363 38.3447 16.591 38.1946C16.9346 37.8707 17.2641 37.5356 17.5965 37.2032C17.7896 37.0349 17.9101 36.7984 17.9326 36.5432C17.9552 36.2881 17.8781 36.0341 17.7176 35.8345C17.5345 35.5726 17.3486 35.3078 17.1543 35.0487C17.1326 35.0227 17.1194 34.9907 17.1163 34.957C17.1133 34.9233 17.1207 34.8895 17.1374 34.86C17.2651 34.5709 17.3862 34.278 17.5007 33.9813C17.5119 33.9451 17.5338 33.9131 17.5634 33.8895C17.593 33.8659 17.6291 33.8518 17.6669 33.849L18.6329 33.6912C18.86 33.6616 19.0693 33.5526 19.2239 33.3836C19.3785 33.2146 19.4684 32.9964 19.4778 32.7675C19.475 32.2465 19.4722 31.7339 19.4609 31.2241ZM11.4935 35.4346C10.8133 35.4335 10.1488 35.2307 9.58394 34.8519C9.01906 34.4731 8.57919 33.9353 8.31995 33.3066C8.06071 32.6778 7.99374 31.9863 8.12752 31.3194C8.2613 30.6526 8.58981 30.0404 9.07152 29.5603C9.55322 29.0801 10.1665 28.7536 10.8338 28.622C11.501 28.4904 12.1923 28.5597 12.8203 28.821C13.4482 29.0823 13.9845 29.5239 14.3614 30.09C14.7384 30.6561 14.939 31.3213 14.9378 32.0014C14.9371 32.453 14.8474 32.9 14.6739 33.317C14.5004 33.7339 14.2465 34.1126 13.9267 34.4314C13.6068 34.7502 13.2273 35.0028 12.8098 35.175C12.3924 35.3471 11.945 35.4353 11.4935 35.4346Z"
                      fill="#367CFF"
                      stroke="#093F68"
                      strokeWidth="0.320905"
                      strokeLinecap="round"
                      strokeLinejoin="round"
                    />
                    <path
                      d="M13.0962 16.8942C13.0902 16.7389 13.0331 16.5898 12.9338 16.4702C12.8345 16.3506 12.6986 16.267 12.547 16.2324C12.2823 16.1733 12.0147 16.131 11.75 16.0916C11.7128 16.0888 11.6774 16.0746 11.6487 16.0509C11.6199 16.0272 11.5992 15.9952 11.5894 15.9592C11.5106 15.7452 11.4205 15.5368 11.3303 15.3284C11.314 15.3048 11.3052 15.2768 11.3052 15.2481C11.3052 15.2194 11.314 15.1914 11.3303 15.1678C11.4937 14.9482 11.657 14.7285 11.8063 14.4975C11.8891 14.3691 11.9278 14.2171 11.9166 14.0647C11.9054 13.9123 11.845 13.7677 11.7443 13.6526C11.4993 13.371 11.2374 13.1316 10.9811 12.8753C10.855 12.7322 10.6789 12.6425 10.4889 12.6247C10.2989 12.607 10.1093 12.6623 9.95878 12.7796C9.75882 12.9204 9.55886 13.0612 9.36172 13.2048C9.34033 13.2245 9.31317 13.2368 9.28425 13.2399C9.25533 13.2429 9.2262 13.2366 9.20119 13.2217C8.97588 13.1232 8.74775 13.0274 8.51681 12.9401C8.48881 12.9327 8.46377 12.9168 8.44512 12.8946C8.42647 12.8724 8.41512 12.845 8.41261 12.8162C8.376 12.5712 8.33376 12.3261 8.29151 12.0839C8.26655 11.9122 8.18211 11.7548 8.05292 11.639C7.92373 11.5231 7.75799 11.4564 7.58461 11.4503C7.20722 11.4503 6.82983 11.4503 6.45807 11.4503C6.29729 11.4536 6.14231 11.5109 6.01814 11.6131C5.89397 11.7153 5.80786 11.8564 5.7737 12.0135C5.71174 12.2952 5.6695 12.5768 5.62443 12.8415C5.62268 12.8705 5.61198 12.8983 5.59383 12.921C5.57568 12.9437 5.55096 12.9602 5.52305 12.9683C5.30055 13.0528 5.0837 13.1485 4.86684 13.2499C4.84456 13.2655 4.81801 13.2739 4.7908 13.2739C4.76358 13.2739 4.73703 13.2655 4.71475 13.2499C4.49789 13.0894 4.28104 12.926 4.05573 12.7768C3.92536 12.6887 3.7694 12.6464 3.61238 12.6566C3.45536 12.6668 3.30618 12.7289 3.1883 12.8331C2.90666 13.095 2.62503 13.3682 2.36029 13.6555C2.23571 13.7815 2.16173 13.949 2.15239 14.126C2.14304 14.303 2.19898 14.4773 2.3096 14.6158C2.45887 14.8299 2.61095 15.0355 2.7574 15.2495C2.77154 15.2857 2.77154 15.3259 2.7574 15.3622C2.66727 15.5987 2.57152 15.8325 2.47576 16.0662C2.46794 16.0844 2.45596 16.1005 2.4408 16.1132C2.42564 16.1259 2.40772 16.1349 2.38846 16.1395C2.14343 16.1845 1.90123 16.224 1.65621 16.2634C1.48362 16.2828 1.32334 16.3623 1.2034 16.4879C1.08345 16.6135 1.01146 16.7773 1 16.9506V18.1306C1.0069 18.2842 1.06371 18.4314 1.16179 18.5498C1.25988 18.6682 1.39391 18.7514 1.54355 18.7868C1.82519 18.8488 2.10682 18.891 2.38846 18.9389C2.41574 18.9417 2.44156 18.9526 2.46263 18.9702C2.48369 18.9877 2.49905 19.0112 2.50674 19.0375C2.59405 19.26 2.6898 19.4825 2.78838 19.7021C2.80347 19.7225 2.81161 19.7472 2.81161 19.7725C2.81161 19.7979 2.80347 19.8226 2.78838 19.843C2.63911 20.0457 2.48984 20.2485 2.34903 20.4541C2.23734 20.6008 2.18414 20.7837 2.19975 20.9675C2.21537 21.1512 2.29868 21.3225 2.43352 21.4483C2.67009 21.6877 2.90666 21.927 3.14887 22.1608C3.27636 22.3011 3.4526 22.3873 3.64157 22.402C3.83054 22.4167 4.01798 22.3586 4.16557 22.2397C4.37116 22.096 4.57675 21.958 4.77671 21.8031C4.79639 21.7889 4.82004 21.7813 4.84431 21.7813C4.86857 21.7813 4.89223 21.7889 4.9119 21.8031C5.12031 21.8932 5.32872 21.9834 5.54276 22.0622C5.5753 22.0708 5.60417 22.0897 5.625 22.1161C5.64583 22.1426 5.6575 22.175 5.65823 22.2087C5.69484 22.4509 5.73708 22.6931 5.77933 22.9325C5.80167 23.0998 5.88115 23.2543 6.00433 23.3698C6.1275 23.4853 6.2868 23.5547 6.45525 23.5662H7.64375C7.79991 23.5577 7.94889 23.4979 8.06755 23.396C8.18622 23.2942 8.26792 23.156 8.29996 23.0029C8.3591 22.7382 8.39853 22.465 8.44359 22.1946C8.44572 22.1624 8.45766 22.1317 8.47781 22.1065C8.49795 22.0813 8.52532 22.0629 8.55624 22.0538C8.77873 21.9693 8.9956 21.8792 9.21527 21.7721C9.23712 21.759 9.26264 21.7533 9.28802 21.7558C9.31339 21.7583 9.33727 21.769 9.35609 21.7862L9.96723 22.2256C10.1112 22.3291 10.2857 22.3816 10.4629 22.3748C10.6269 22.3725 10.7839 22.3081 10.9023 22.1946C11.1614 21.9496 11.412 21.6961 11.6627 21.4454C11.8096 21.3179 11.9014 21.1384 11.9187 20.9446C11.936 20.7508 11.8776 20.5578 11.7556 20.4062C11.6148 20.2063 11.474 20.0063 11.3303 19.8092C11.3137 19.7895 11.3034 19.7652 11.3009 19.7395C11.2983 19.7139 11.3037 19.6881 11.3163 19.6655C11.412 19.4458 11.505 19.2234 11.5979 18.9981C11.6063 18.9703 11.623 18.9458 11.6456 18.9277C11.6682 18.9096 11.6957 18.8988 11.7246 18.8967C11.9696 18.8601 12.2147 18.8206 12.4569 18.7784C12.6294 18.7559 12.7885 18.6733 12.906 18.545C13.0234 18.4166 13.0918 18.2509 13.099 18.0771C13.1065 17.6753 13.1056 17.281 13.0962 16.8942ZM7.0495 20.088C6.53382 20.0869 6.03005 19.9329 5.60186 19.6455C5.17366 19.3582 4.84028 18.9503 4.64384 18.4735C4.4474 17.9967 4.39672 17.4724 4.49821 16.9668C4.5997 16.4612 4.84881 15.997 5.21404 15.633C5.57927 15.2689 6.04423 15.0213 6.55015 14.9215C7.05607 14.8216 7.58024 14.874 8.0564 15.072C8.53256 15.27 8.93933 15.6047 9.22531 16.0338C9.51128 16.4629 9.66362 16.9672 9.66307 17.4829C9.66083 18.1746 9.38449 18.8372 8.89459 19.3255C8.40469 19.8138 7.7412 20.088 7.0495 20.088Z"
                      fill="#367CFF"
                      stroke="#093F68"
                      strokeWidth="0.320905"
                      strokeLinecap="round"
                      strokeLinejoin="round"
                    />
                  </svg>