<svg width="173" height="61" viewBox="0 0 173 61" fill="none" xmlns="http://www.w3.org/2000/svg">
<g clip-path="url(#clip0_176_117)">
<path fill-rule="evenodd" clip-rule="evenodd" d="M162.051 12.8833C162.051 13.3939 161.634 13.808 161.12 13.808C160.605 13.808 160.188 13.3939 160.188 12.8833C160.188 12.3726 160.605 11.9585 161.12 11.9585C161.634 11.9585 162.051 12.3726 162.051 12.8833Z" fill="white"/>
<path fill-rule="evenodd" clip-rule="evenodd" d="M162.348 7.28361C162.348 7.95776 161.798 8.50424 161.12 8.50424C160.44 8.50424 159.89 7.95776 159.89 7.28361C159.89 6.60947 160.44 6.06299 161.12 6.06299C161.798 6.06299 162.348 6.60947 162.348 7.28361Z" fill="white"/>
<path fill-rule="evenodd" clip-rule="evenodd" d="M167.366 10.058C167.366 10.7322 166.816 11.2787 166.137 11.2787C165.458 11.2787 164.908 10.7322 164.908 10.058C164.908 9.38388 165.458 8.8374 166.137 8.8374C166.816 8.8374 167.366 9.38388 167.366 10.058Z" fill="white"/>
<path fill-rule="evenodd" clip-rule="evenodd" d="M165.837 17.0143C165.182 16.8354 164.798 16.1632 164.978 15.5133C165.159 14.8634 165.835 14.4816 166.489 14.661C167.144 14.84 167.528 15.5121 167.348 16.1616C167.167 16.8119 166.491 17.1933 165.837 17.0143Z" fill="white"/>
<path fill-rule="evenodd" clip-rule="evenodd" d="M160.819 19.8911C160.164 19.7122 159.78 19.04 159.96 18.3901C160.141 17.7402 160.817 17.3588 161.472 17.5378C162.126 17.7168 162.511 18.3889 162.33 19.0388C162.15 19.6887 161.473 20.0701 160.819 19.8911Z" fill="white"/>
<path fill-rule="evenodd" clip-rule="evenodd" d="M155.853 17.0143C155.198 16.8354 154.814 16.1632 154.994 15.5133C155.175 14.8634 155.852 14.4816 156.506 14.661C157.16 14.84 157.545 15.5121 157.364 16.1616C157.184 16.8119 156.507 17.1933 155.853 17.0143Z" fill="white"/>
<path fill-rule="evenodd" clip-rule="evenodd" d="M155.853 11.209C155.198 11.03 154.814 10.3578 154.994 9.70839C155.175 9.0581 155.852 8.67668 156.506 8.85566C157.16 9.03464 157.545 9.70679 157.364 10.3566C157.184 11.0065 156.507 11.3879 155.853 11.209Z" fill="white"/>
<path fill-rule="evenodd" clip-rule="evenodd" d="M160.763 2.96796C159.953 2.74642 159.477 1.91438 159.701 1.11017C159.923 0.305573 160.761 -0.166928 161.571 0.0546067C162.381 0.276141 162.857 1.10819 162.634 1.91279C162.41 2.71739 161.573 3.18989 160.763 2.96796Z" fill="white"/>
<mask id="mask0_176_117" style="mask-type:alpha" maskUnits="userSpaceOnUse" x="169" y="5" width="4" height="4">
<path fill-rule="evenodd" clip-rule="evenodd" d="M169.681 5.70264H172.724V8.72537H169.681V5.70264Z" fill="white"/>
</mask>
<g mask="url(#mask0_176_117)">
<path fill-rule="evenodd" clip-rule="evenodd" d="M170.798 8.6706C169.988 8.44906 169.512 7.61702 169.736 6.81281C169.959 6.00821 170.797 5.53571 171.607 5.75724C172.416 5.97878 172.892 6.81082 172.669 7.61543C172.446 8.42003 171.608 8.89253 170.798 8.6706Z" fill="white"/>
</g>
<path fill-rule="evenodd" clip-rule="evenodd" d="M170.746 20.1789C169.937 19.9569 169.461 19.1253 169.684 18.3207C169.907 17.5165 170.744 17.044 171.555 17.2655C172.365 17.487 172.84 18.3191 172.617 19.1237C172.394 19.9279 171.556 20.4004 170.746 20.1789Z" fill="white"/>
<path fill-rule="evenodd" clip-rule="evenodd" d="M160.763 25.8811C159.953 25.6596 159.477 24.8275 159.701 24.0233C159.923 23.2187 160.761 22.7462 161.571 22.9677C162.381 23.1893 162.857 24.0213 162.634 24.8259C162.41 25.6305 161.573 26.1026 160.763 25.8811Z" fill="white"/>
<path fill-rule="evenodd" clip-rule="evenodd" d="M150.779 20.1789C149.97 19.9569 149.494 19.1253 149.717 18.3207C149.94 17.5165 150.778 17.044 151.588 17.2655C152.398 17.487 152.873 18.3191 152.65 19.1237C152.427 19.9279 151.589 20.4004 150.779 20.1789Z" fill="white"/>
<path fill-rule="evenodd" clip-rule="evenodd" d="M150.779 8.72187C149.97 8.49994 149.494 7.66829 149.717 6.86369C149.94 6.05948 150.778 5.58698 151.588 5.80852C152.398 6.03005 152.873 6.8621 152.65 7.6667C152.427 8.47091 151.589 8.94341 150.779 8.72187Z" fill="white"/>
<mask id="mask1_176_117" style="mask-type:alpha" maskUnits="userSpaceOnUse" x="0" y="8" width="36" height="32">
<path fill-rule="evenodd" clip-rule="evenodd" d="M0.62548 11.4889C0.614668 12.0616 0.239434 11.6858 0.670733 12.0827L29.8168 38.938C30.7135 39.7641 32.0754 39.5684 33.0025 38.7097L33.8215 37.9517C35.6055 36.2991 35.7693 33.84 34.0437 32.2499L9.71799 9.83479L8.53462 9.17416C7.74291 8.7653 7.39971 8.60223 7.31481 8.56445L0.62548 11.4889Z" fill="white"/>
</mask>
<g mask="url(#mask1_176_117)">
<path fill-rule="evenodd" clip-rule="evenodd" d="M0.62548 11.4889C0.614668 12.0616 0.239434 11.6858 0.670733 12.0827L29.8168 38.938C30.7135 39.7641 32.0754 39.5684 33.0025 38.7097L33.8215 37.9517C35.6055 36.2991 35.7693 33.84 34.0437 32.2499L9.71799 9.83479L8.53462 9.17416C7.74291 8.7653 7.39971 8.60223 7.31481 8.56445L0.62548 11.4889Z" fill="#F0F0F0"/>
</g>
<mask id="mask2_176_117" style="mask-type:alpha" maskUnits="userSpaceOnUse" x="7" y="27" width="29" height="34">
<path fill-rule="evenodd" clip-rule="evenodd" d="M29.6158 30.7362C29.3539 31.4051 27.8198 32.8755 27.8198 32.8755L8.69565 50.7343C8.1402 51.2529 7.82544 51.9768 7.82544 52.7341V59.0854C7.82544 60.2634 9.24188 60.8719 10.1061 60.0654L10.36 59.8287L34.0662 37.7083C34.6464 37.0958 35.2267 36.0029 35.2511 35.2341C35.2928 33.9271 34.9252 33.0963 33.9572 32.1719L29.3539 27.9326C29.3539 27.9326 30.247 29.1238 29.6158 30.7362Z" fill="white"/>
</mask>
<g mask="url(#mask2_176_117)">
<path fill-rule="evenodd" clip-rule="evenodd" d="M29.6158 30.7362C29.3539 31.4051 27.8198 32.8755 27.8198 32.8755L8.69565 50.7343C8.1402 51.2529 7.82544 51.9768 7.82544 52.7341V59.0854C7.82544 60.2634 9.24188 60.8719 10.1061 60.0654L10.36 59.8287L34.0662 37.7083C34.6464 37.0958 35.2267 36.0029 35.2511 35.2341C35.2928 33.9271 34.9252 33.0963 33.9572 32.1719L29.3539 27.9326C29.3539 27.9326 30.247 29.1238 29.6158 30.7362Z" fill="white"/>
</g>
<mask id="mask3_176_117" style="mask-type:alpha" maskUnits="userSpaceOnUse" x="0" y="8" width="10" height="40">
<path fill-rule="evenodd" clip-rule="evenodd" d="M5.365 8.00736C3.14964 8.09088 0.148572 9.70645 0.00881018 12.9375L0 43.9702C0 46.1084 1.74522 47.8421 3.89851 47.8421C6.06661 47.8421 7.82425 46.0961 7.82425 43.9432V11.5586C7.82425 11.5586 7.72453 10.6136 8.1278 10.1936C8.96677 9.32025 9.76489 9.87986 9.76489 9.87986C9.76489 9.87986 8.78696 8.75906 7.4406 8.31361C6.59683 8.0344 5.78549 8.00537 5.48634 8.00537C5.40825 8.00537 5.365 8.00736 5.365 8.00736Z" fill="white"/>
</mask>
<g mask="url(#mask3_176_117)">
<path fill-rule="evenodd" clip-rule="evenodd" d="M5.365 8.00736C3.14964 8.09088 0.148572 9.70645 0.00881018 12.9375L0 43.9702C0 46.1084 1.74522 47.8421 3.89851 47.8421C6.06661 47.8421 7.82425 46.0961 7.82425 43.9432V11.5586C7.82425 11.5586 7.72453 10.6136 8.1278 10.1936C8.96677 9.32025 9.76489 9.87986 9.76489 9.87986C9.76489 9.87986 8.78696 8.75906 7.4406 8.31361C6.59683 8.0344 5.78549 8.00537 5.48634 8.00537C5.40825 8.00537 5.365 8.00736 5.365 8.00736Z" fill="white"/>
</g>
<path fill-rule="evenodd" clip-rule="evenodd" d="M48.998 41.3293C49.9647 41.3293 50.8553 41.163 51.6695 40.8305C52.4832 40.4988 53.1828 40.0359 53.7683 39.4421C54.353 38.8487 54.8171 38.161 55.1611 37.3775C55.5047 36.5947 55.6765 35.7524 55.6765 34.8503C55.6765 33.9729 55.5047 33.1421 55.1611 32.3593C54.8171 31.5758 54.353 30.8933 53.7683 30.3118C53.1828 29.7304 52.4832 29.2734 51.6695 28.9417C50.8553 28.6096 49.9647 28.4433 48.998 28.4433C48.0565 28.4433 47.1719 28.6096 46.3457 28.9417C45.5192 29.2734 44.8007 29.7244 44.1896 30.2943C43.5797 30.8639 43.102 31.54 42.7584 32.3228C42.4156 33.1063 42.2442 33.9487 42.2442 34.8503C42.2442 35.7524 42.4156 36.6011 42.7584 37.3958C43.102 38.1904 43.5797 38.8781 44.1896 39.4596C44.8007 40.0418 45.5192 40.4988 46.3457 40.8305C47.1719 41.163 48.0565 41.3293 48.998 41.3293ZM48.1582 46.0288C46.8094 46.0288 45.4807 45.7791 44.1704 45.2803C42.8601 44.7808 41.6839 44.0553 40.6411 43.1059C39.5971 42.1562 38.7585 40.994 38.1222 39.6171C37.4859 38.2409 37.1687 36.6767 37.1687 34.9239C37.1687 33.1453 37.4795 31.5687 38.1038 30.1929C38.7261 28.8168 39.5535 27.6534 40.5838 26.7041C41.6142 25.7543 42.7972 25.03 44.1328 24.5305C45.4687 24.0317 46.8359 23.7808 48.2347 23.7808C49.7104 23.7808 51.0716 24.0464 52.3178 24.5754C53.5641 25.1056 54.5948 25.8283 55.409 26.743V23.8193H60.5605V45.9906H55.409V42.8403C54.5948 43.8302 53.5516 44.6101 52.2802 45.1765C51.0075 45.7453 49.6331 46.0288 48.1582 46.0288Z" fill="white"/>
<path fill-rule="evenodd" clip-rule="evenodd" d="M71.4963 45.3152L62.3213 24.0623L67.9586 24.042L74.2943 38.8621L80.6609 24.044L86.3262 24.042L72.3032 56.4082H66.6992L71.4963 45.3152Z" fill="white"/>
<path fill-rule="evenodd" clip-rule="evenodd" d="M96.0109 41.2152C96.9268 41.2152 97.7793 41.0489 98.5683 40.7172C99.3564 40.3855 100.043 39.9357 100.629 39.3665C101.213 38.7978 101.672 38.1276 102.002 37.3572C102.333 36.5876 102.498 35.7759 102.498 34.9227C102.498 34.0461 102.333 33.2225 102.002 32.4525C101.672 31.6821 101.213 31.0127 100.629 30.4435C100.043 29.8748 99.3564 29.4242 98.5683 29.0925C97.7793 28.7607 96.9268 28.5945 96.0109 28.5945C95.0958 28.5945 94.2368 28.7607 93.4359 29.0925C92.6338 29.4242 91.947 29.8748 91.3747 30.4435C90.8021 31.0127 90.3508 31.6821 90.0204 32.4525C89.6892 33.2225 89.5246 34.0461 89.5246 34.9227C89.5246 35.7759 89.6892 36.5876 90.0204 37.3572C90.3508 38.1276 90.8021 38.7978 91.3747 39.3665C91.947 39.9357 92.6338 40.3855 93.4359 40.7172C94.2368 41.0489 95.0958 41.2152 96.0109 41.2152ZM96.0109 46.0289C94.4086 46.0289 92.9009 45.7425 91.4893 45.1706C90.0776 44.5986 88.8494 43.8064 87.8066 42.7957C86.7634 41.7855 85.9429 40.6039 85.3454 39.252C84.7479 37.9005 84.4487 36.4572 84.4487 34.9235C84.4487 33.3644 84.7479 31.9092 85.3454 30.5573C85.9429 29.2066 86.7634 28.025 87.8066 27.0135C88.8494 26.0041 90.0776 25.2118 91.4893 24.6399C92.9009 24.068 94.4086 23.7808 96.0109 23.7808C97.6139 23.7808 99.1153 24.068 100.514 24.6399C101.913 25.2118 103.141 26.0041 104.197 27.0135C105.252 28.025 106.079 29.2066 106.677 30.5573C107.275 31.9092 107.574 33.3644 107.574 34.9235C107.574 36.4572 107.275 37.9005 106.677 39.252C106.079 40.6039 105.252 41.7855 104.197 42.7957C103.141 43.8064 101.913 44.5986 100.514 45.1706C99.1153 45.7425 97.6139 46.0289 96.0109 46.0289Z" fill="white"/>
<path fill-rule="evenodd" clip-rule="evenodd" d="M109.825 23.819H114.939V26.8473C115.676 25.923 116.612 25.1812 117.744 24.6208C118.876 24.0612 120.166 23.7808 121.617 23.7808C124.389 23.7808 126.558 24.5997 128.123 26.2364C129.688 27.8726 130.47 30.1552 130.47 33.0817V45.9903H125.242V33.6588C125.242 31.9804 124.822 30.6539 123.983 29.6779C123.144 28.7031 121.884 28.2159 120.205 28.2159C118.729 28.2159 117.489 28.7214 116.485 29.734C115.479 30.7462 114.977 32.2023 114.977 34.1034V45.9903H109.825V23.819Z" fill="white"/>
<path fill-rule="evenodd" clip-rule="evenodd" d="M137.911 32.0058C138.37 30.8917 139.164 29.9941 140.297 29.3128C141.428 28.6318 142.77 28.2918 144.322 28.2918C145.925 28.2918 147.273 28.6068 148.367 29.2352C149.461 29.8644 150.199 30.7879 150.581 32.0058H137.911ZM155.809 34.476C155.809 32.9364 155.522 31.515 154.95 30.2128C154.377 28.9095 153.582 27.7791 152.565 26.8186C151.546 25.8597 150.333 25.1135 148.921 24.581C147.509 24.048 145.976 23.7808 144.322 23.7808C142.693 23.7808 141.174 24.0743 139.762 24.6581C138.35 25.2424 137.122 26.0335 136.079 27.0322C135.036 28.0305 134.216 29.2125 133.618 30.5755C133.02 31.9397 132.721 33.401 132.721 34.9601C132.721 36.4937 133.007 37.9371 133.58 39.2889C134.153 40.6396 134.954 41.8157 135.984 42.814C137.014 43.8127 138.254 44.5986 139.705 45.1705C141.155 45.7425 142.758 46.0288 144.513 46.0288C147.006 46.0288 149.124 45.4788 150.866 44.3803C152.244 43.5108 153.37 42.4159 154.263 41.1121L150.066 38.7051C149.59 39.3935 149.005 39.9842 148.291 40.4571C147.222 41.1646 145.962 41.5182 144.513 41.5182C142.681 41.5182 141.167 41.0385 139.971 40.0784C138.776 39.1183 138 37.8555 137.644 36.2885H155.809V34.476Z" fill="white"/>
</g>
<defs>
<clipPath id="clip0_176_117">
<rect width="173" height="61" fill="white"/>
</clipPath>
</defs>
</svg>
